HIERARCHY
ROOT Model_Hips
{
	OFFSET 0.000000 96.915077 0.000000
	CHANNELS 6 Xposition Yposition Zposition Xrotation Yrotation Zrotation
	JOINT Model_Spine
	{
		OFFSET 0.000000 11.137703 -1.289900
		CHANNELS 3 Xrotation Yrotation Zrotation
		JOINT Model_Spine1
		{
			OFFSET 0.000000 12.993942 -1.504922
			CHANNELS 3 Xrotation Yrotation Zrotation
			JOINT Model_Spine2
			{
				OFFSET 0.000000 14.850220 -1.719911
				CHANNELS 3 Xrotation Yrotation Zrotation
				JOINT Model_Neck
				{
					OFFSET 0.000000 16.706543 -1.934903
					CHANNELS 3 Xrotation Yrotation Zrotation
					JOINT Model_Head
					{
						OFFSET 0.000000 10.471298 2.002100
						CHANNELS 3 Xrotation Yrotation Zrotation
						JOINT Model_HeadTop_End
						{
							OFFSET 0.000000 20.842606 3.985100
							CHANNELS 3 Xrotation Yrotation Zrotation
							End Site
							{
								OFFSET 0.000000 21.220154 0.000000
							}
						}
					}
				}
				JOINT Model_LeftShoulder
				{
					OFFSET 7.008500 14.768600 -1.919946
					CHANNELS 3 Xrotation Yrotation Zrotation
					JOINT Model_LeftArm
					{
						OFFSET 14.126271 -3.718048 0.029937
						CHANNELS 3 Xrotation Yrotation Zrotation
						JOINT Model_LeftForeArm
						{
							OFFSET 28.282801 0.000000 0.000000
							CHANNELS 3 Xrotation Yrotation Zrotation
							JOINT Model_LeftHand
							{
								OFFSET 26.204689 0.000000 0.000000
								CHANNELS 3 Xrotation Yrotation Zrotation
								End Site
								{
									OFFSET 26.204704 0.000000 0.000000
								}
							}
						}
					}
				}
				JOINT Model_RightShoulder
				{
					OFFSET -7.008500 14.768555 -1.949840
					CHANNELS 3 Xrotation Yrotation Zrotation
					JOINT Model_RightArm
					{
						OFFSET -14.126281 -3.718018 -0.029932
						CHANNELS 3 Xrotation Yrotation Zrotation
						JOINT Model_RightForeArm
						{
							OFFSET -28.283798 0.000000 -0.000001
							CHANNELS 3 Xrotation Yrotation Zrotation
							JOINT Model_RightHand
							{
								OFFSET -26.204193 0.000000 -0.000001
								CHANNELS 3 Xrotation Yrotation Zrotation
								End Site
								{
									OFFSET -26.204208 0.000000 -0.000001
								}
							}
						}
					}
				}
			}
		}
	}
	JOINT Model_LeftUpLeg
	{
		OFFSET 8.327700 -6.193199 -0.402800
		CHANNELS 3 Xrotation Yrotation Zrotation
		JOINT Model_LeftLeg
		{
			OFFSET 0.735802 -42.108742 -0.610721
			CHANNELS 3 Xrotation Yrotation Zrotation
			JOINT Model_LeftFoot
			{
				OFFSET -0.735806 -36.833748 -0.172876
				CHANNELS 3 Xrotation Yrotation Zrotation
				JOINT Model_LeftToeBase
				{
					OFFSET -0.565857 -11.977769 16.297714
					CHANNELS 3 Xrotation Yrotation Zrotation
					JOINT Model_LeftToe_End
					{
						OFFSET -0.111712 -0.312793 7.857784
						CHANNELS 3 Xrotation Yrotation Zrotation
						End Site
						{
							OFFSET -0.111712 -0.312793 7.857784
						}
					}
				}
			}
		}
	}
	JOINT Model_RightUpLeg
	{
		OFFSET -8.327700 -6.193199 -0.516500
		CHANNELS 3 Xrotation Yrotation Zrotation
		JOINT Model_RightLeg
		{
			OFFSET -0.735785 -42.108738 -0.434061
			CHANNELS 3 Xrotation Yrotation Zrotation
			JOINT Model_RightFoot
			{
				OFFSET 0.735776 -36.833748 -0.021630
				CHANNELS 3 Xrotation Yrotation Zrotation
				JOINT Model_RightToeBase
				{
					OFFSET 0.565817 -11.977745 15.903093
					CHANNELS 3 Xrotation Yrotation Zrotation
					JOINT Model_RightToe_End
					{
						OFFSET 0.111702 -0.312791 7.811342
						CHANNELS 3 Xrotation Yrotation Zrotation
						End Site
						{
							OFFSET 0.111702 -0.312791 7.811342
						}
					}
				}
			}
		}
	}
}
MOTION
Frames: 9
Frame Time: 0.016667
-0.243345 96.493538 0.265491 -4.315008 -2.834079 1.235576 6.331782 -2.214711 0.068220 0.584416 -0.628574 -0.173313 0.586624 -0.622347 -0.171087 -1.352828 -0.196532 -0.604556 -1.354434 -0.199174 -0.604061 0.000000 0.000000 0.000000 0.755449 -0.949812 -17.299928 -0.734535 -9.495187 -56.496528 -0.000007 -13.104456 -0.000017 -0.000002 0.000002 0.000001 0.615783 3.124657 19.144740 0.537381 8.872060 61.175552 0.000009 6.440771 -0.000003 -0.000001 -0.000001 0.000000 -1.684051 11.167087 4.516335 14.558668 -4.169617 -1.526544 -8.669986 0.290162 -1.888322 -0.363923 0.000005 -0.000001 0.000000 -0.000000 -0.000000 -24.964570 -5.580040 -0.781322 61.830608 0.185103 1.205318 0.983694 -0.006878 -0.900724 -10.266103 0.624032 -4.449938 0.000003 0.000000 0.000001 
-0.140761 96.584320 2.181468 -4.059368 -2.850025 0.965069 6.286878 -3.004623 0.517170 0.602009 -0.857614 -0.094568 0.604729 -0.851681 -0.090821 -1.367260 -0.141603 -0.604555 -1.369282 -0.143611 -0.591073 -0.000000 -0.000001 0.000000 0.728716 -1.318711 -17.185050 -1.557584 -10.772966 -55.948914 -0.000019 -14.203242 0.000001 0.000000 -0.000002 0.000001 0.649965 2.700790 18.995572 1.954054 8.396894 61.678036 -0.000003 6.727066 0.000007 0.000001 0.000000 -0.000000 -0.583639 11.383793 4.568206 14.499061 -4.234650 -1.462147 -9.855639 0.237677 -1.379002 -0.467487 0.000000 -0.000001 0.000000 0.000000 -0.000000 -26.647515 -5.622836 -0.441488 57.886570 -0.596791 1.458912 0.157779 0.005525 -0.935901 -6.127076 0.281122 -4.178031 -0.000002 -0.000001 0.000000 
-0.052424 96.579048 4.075667 -3.704614 -2.968002 0.717678 6.193698 -3.649867 0.938602 0.594967 -1.045810 -0.007735 0.597663 -1.040599 -0.002838 -1.383000 -0.093268 -0.604555 -1.385383 -0.095024 -0.594512 0.000000 0.000001 -0.000000 0.704477 -1.686901 -17.179203 -2.167306 -12.100386 -55.230658 -0.000004 -15.494216 0.000004 0.000003 -0.000003 0.000003 0.682391 2.280010 18.811050 3.490313 7.762467 62.100701 0.000000 7.089305 0.000046 -0.000000 -0.000000 -0.000000 0.370043 11.525688 4.571284 14.594637 -4.131964 -1.324737 -11.240755 0.184492 -0.965677 -0.552650 0.000007 0.000003 -0.000000 0.000000 -0.000000 -28.067267 -5.472769 -0.056360 53.235741 -1.856018 1.559362 -0.607519 0.019169 -0.969318 -2.659632 0.022353 -1.177748 -0.000000 0.000001 -0.000000 
0.008742 96.487434 5.965417 -3.313864 -3.199605 0.445279 6.084730 -4.189240 1.381363 0.580592 -1.206227 0.082483 0.582854 -1.201840 0.088252 -1.398448 -0.046951 -0.604555 -1.401118 -0.048435 -0.598219 0.000000 -0.000000 0.000000 0.685623 -1.984722 -17.232931 -2.632588 -13.422047 -54.342218 -0.000018 -16.927627 -0.000013 -0.000001 -0.000002 0.000002 0.708268 1.937311 18.698275 5.095766 7.009473 62.406072 0.000004 7.483217 0.000025 0.000001 0.000000 0.000000 1.308049 11.696983 4.595554 14.708140 -3.898082 -1.169708 -12.795105 0.127050 -0.600817 -0.492597 0.000003 -0.000000 0.000001 -0.000000 -0.000000 -29.064880 -5.171818 0.425959 47.729963 -3.478326 1.514948 -0.888168 0.033781 -1.059067 -0.861190 -0.000004 0.000005 0.000002 -0.000000 -0.000000 
0.038589 96.313499 7.868102 -2.958302 -3.535769 0.157837 6.001327 -4.657791 1.840778 0.581606 -1.348782 0.166795 0.583247 -1.344964 0.173499 -1.416972 0.002091 -0.597870 -1.419819 0.001162 -0.591081 0.000000 -0.000001 0.000000 0.674751 -2.162540 -17.311765 -3.147720 -14.682306 -53.337432 -0.000006 -18.353763 0.000020 -0.000000 -0.000003 0.000002 0.729051 1.675190 18.702902 6.646379 6.196588 62.607959 0.000025 7.828711 -0.000014 -0.000000 -0.000000 -0.000000 2.255181 11.975839 4.710150 14.904337 -3.639262 -1.081386 -14.402161 0.084063 -0.427986 -0.522113 0.000004 -0.000001 -0.000000 -0.000000 0.000000 -29.510379 -4.786578 0.958547 41.267081 -5.343491 1.340256 -0.504833 0.039721 -1.097837 -0.613413 -0.000016 0.000000 -0.000000 -0.000000 0.000001 
0.038679 96.057457 9.797538 -2.676177 -3.954402 -0.083951 5.960900 -5.067226 2.256638 0.603904 -1.474356 0.236725 0.604966 -1.470702 0.244601 -1.435674 0.055409 -0.582961 -1.438551 0.055242 -0.575819 -0.000000 -0.000001 0.000000 0.671802 -2.222252 -17.408189 -3.840092 -15.853374 -52.302197 -0.000003 -19.610190 -0.000001 0.000002 0.000000 0.000000 0.747734 1.455284 18.777105 8.067135 5.338852 62.774930 0.000006 8.068822 -0.000009 0.000001 0.000000 0.000000 3.229207 12.370402 4.881217 15.250525 -3.421169 -1.107394 -16.020502 0.066362 -0.444958 -0.612968 0.000004 0.000002 0.000000 -0.000001 -0.000000 -29.292711 -4.377338 1.458552 33.710484 -7.167722 1.056834 0.510887 0.037415 -1.092533 -0.634358 -0.000021 0.000001 0.000001 0.000000 -0.000000 
0.010113 95.716095 11.767431 -2.461622 -4.433901 -0.203655 5.942913 -5.417397 2.549914 0.636922 -1.580218 0.281919 0.637675 -1.576335 0.291075 -1.454080 0.109049 -0.565385 -1.456902 0.109615 -0.557971 0.000000 -0.000000 0.000000 0.674974 -2.191814 -17.507955 -4.705741 -16.908698 -51.312920 0.000019 -20.617057 0.000012 -0.000000 0.000001 -0.000002 0.765967 1.246716 18.859723 9.334637 4.389640 62.972445 0.000007 8.173715 -0.000034 -0.000001 0.000000 0.000000 4.329621 12.826907 4.961857 15.639181 -3.203755 -1.231917 -17.710742 0.055868 -0.420053 -0.808551 -0.000006 -0.000000 0.000000 -0.000001 -0.000000 -28.243766 -4.010180 1.850383 24.740542 -8.570974 0.728503 2.163058 0.033168 -1.174346 -0.392787 -0.000001 -0.000003 -0.000000 -0.000001 0.000001 
-0.042995 95.022171 13.909823 -2.278154 -4.949594 -0.140942 5.680570 -5.717697 2.675006 0.764543 -1.667364 0.277812 0.764979 -1.663710 0.285293 -1.478440 0.156012 -0.547311 -1.481130 0.157300 -0.539608 0.000000 0.000000 0.000000 0.682013 -2.102809 -17.587107 -5.683856 -17.801239 -50.419657 -0.000020 -21.379431 -0.000013 -0.000003 0.000000 -0.000001 0.785215 1.024748 18.925317 10.388421 3.243040 63.226788 0.000004 8.082993 -0.000015 -0.000000 -0.000000 -0.000000 4.595571 13.169227 5.094052 18.345261 -2.996087 -1.402412 -20.822629 0.049726 -0.290949 -1.178457 0.000002 -0.000001 0.000000 -0.000000 0.000000 -27.373785 -3.824677 2.009034 16.542875 -8.921262 0.420239 3.194519 -0.406872 -1.061022 0.266643 0.000031 -0.000001 0.000001 0.000001 0.000001 
-0.136868 93.740852 16.400345 -2.094283 -5.463695 0.114028 4.789230 -5.990587 2.627479 1.144095 -1.741792 0.208323 1.143330 -1.740228 0.205521 -1.512277 0.193638 -0.534579 -1.514849 0.195520 -0.526502 0.000000 0.000001 -0.000000 0.689844 -2.000391 -17.643468 -6.702500 -18.475882 -49.653160 -0.000006 -21.933657 -0.000031 0.000001 0.000001 -0.000001 0.806317 0.765772 18.930359 11.159811 1.798418 63.557991 -0.000003 7.709508 -0.000021 0.000001 -0.000000 -0.000000 3.986004 13.305443 5.315920 23.768821 -2.837018 -1.556241 -25.695617 0.090724 -0.225855 -1.769801 0.000005 0.000003 0.000000 -0.000000 -0.000000 -30.081079 -3.946372 1.696062 16.482271 -8.607072 0.205095 -0.257543 -1.019828 0.247030 0.995435 0.000002 0.000010 0.000001 0.000003 0.000001 
